<?xml version="1.0" encoding="utf-8"?>
<!-- Generator: Adobe Illustrator 27.0.0, SVG Export Plug-In . SVG Version: 6.00 Build 0)  -->
<svg version="1.1" id="Layer_1" xmlns="http://www.w3.org/2000/svg" xmlns:xlink="http://www.w3.org/1999/xlink" x="0px" y="0px"
	 viewBox="0 0 792 792" style="enable-background:new 0 0 792 792;" xml:space="preserve">
<style type="text/css">
	.st0{fill:none;}
	.st1{fill:#FF4507;}
</style>
<g>
	<path class="st0" d="M588,588c-128,0-256,0-384,0c0-128,0-256,0-384c127.9,0,255.9,0,384,0C588,332,588,460,588,588z M396.3,219.9
		c-97.6,0-176.6,78.8-176.3,176.5c0.3,97,77.8,174.7,174.2,175.5c98.7,0.8,177.8-77.9,177.9-176
		C572.3,299.4,492.9,219.8,396.3,219.9z"/>
	<path class="st1" d="M396.5,122.8c149.8-0.1,273,123.4,272.8,273.1c-0.3,152.1-122.9,274.3-276,273
		c-149.6-1.2-269.8-121.8-270.3-272.2C122.5,245.1,245.1,122.9,396.5,122.8z M371.3,371.3c-3.3,0-5.6,0-7.9,0c-30.1,0-60.1,0-90.2,0
		c-12.4,0-21.6,6.4-25,17c-5.2,16.2,6.4,32.2,23.9,32.3c30.6,0.2,61.3,0.1,91.9,0.1c2.2,0,4.5,0,7.2,0c0,3.3,0,5.6,0,7.9
		c0,30.1,0,60.1,0,90.2c0,12.4,6.4,21.6,17.1,25c16.2,5.2,32.2-6.4,32.3-23.9c0.2-30.6,0.1-61.3,0.1-91.9c0-2.2,0-4.5,0-7.1
		c3.3,0,5.6,0,7.9,0c30.1,0,60.1,0,90.2,0c12.1,0,21.2-6.2,24.8-16.5c5.7-16.3-6-32.7-23.8-32.9c-30.6-0.2-61.3-0.1-91.9-0.1
		c-2.2,0-4.5,0-7.1,0c0-3.3,0-5.6,0-7.9c0-30.1,0-60.1,0-90.2c0-12.1-6.2-21.3-16.5-24.8c-16.3-5.7-32.7,6-32.9,23.8
		c-0.2,30.4-0.1,60.9-0.1,91.3C371.3,365.8,371.3,368.1,371.3,371.3z"/>
	<path class="st0" d="M380.1,380c0-2,0-3.5,0-5c0-19.6-0.1-39.2,0-58.9c0.1-11.5,10.7-19,21.2-15.3c6.6,2.3,10.6,8.2,10.6,16
		c0.1,19.4,0,38.7,0,58.1c0,1.5,0,3,0,5.1c1.7,0,3.2,0,4.6,0c19.7,0,39.5-0.1,59.2,0c11.5,0.1,19,10.7,15.4,21.2
		c-2.3,6.6-8.2,10.6-16,10.6c-19.4,0-38.7,0-58.1,0c-1.5,0-3,0-5.1,0c0,1.7,0,3.2,0,4.6c0,19.7,0.1,39.5,0,59.2
		c-0.1,11.3-10.4,18.8-20.8,15.4c-6.8-2.2-11-8.1-11-16.1c0-19.4,0-38.7,0-58.1c0-1.5,0-3,0-5.1c-1.7,0-3.2,0-4.6,0
		c-19.7,0-39.5,0.1-59.2,0c-11.3-0.1-18.8-10.4-15.4-20.8c2.2-6.8,8.1-11,16.1-11c19.4,0,38.7,0,58.1,0C376.5,380,378,380,380.1,380
		z"/>
</g>
</svg>
