<?xml version="1.0" encoding="utf-8"?>
<!-- Generator: Adobe Illustrator 27.0.0, SVG Export Plug-In . SVG Version: 6.00 Build 0)  -->
<svg version="1.1" id="Layer_1" xmlns="http://www.w3.org/2000/svg" xmlns:xlink="http://www.w3.org/1999/xlink" x="0px" y="0px"
	 viewBox="0 0 792 792" style="enable-background:new 0 0 792 792;" xml:space="preserve">
<style type="text/css">
	.st0{fill:none;}
</style>
<g>
	<path class="st0" d="M500.7,150c46.9,0,93.9,0,140.8,0c0,163.8,0,327.6,0,491.5c-163.8,0-327.7,0-491.5,0c0-44.3,0-88.7,0-133.1
		c0.3,1.9,0.8,3.7,1,5.6c4.7,44,25.2,79,62.1,102.9c45.1,29.3,93,31.6,141.6,8.5c13.1-6.2,25.2-14.3,35.7-24.8
		c81.9-81.4,164.1-162.5,246.2-243.7c1.2-1.2,2.3-2.4,2.8-2.9c-8.3-8.5-16.2-16.6-24.9-25.5c-1.3,1.6-2.5,3.5-4.1,5.1
		c-80.5,79.7-161,159.2-241.5,238.9c-26.4,26.1-57.8,37.6-94.6,31.8c-35.1-5.6-61.5-24.5-77.4-56.3c-21.1-42.1-13.1-88.2,20.4-121.5
		c74.1-73.6,148.5-147,222.8-220.4c16.3-16.1,36-22.9,58.9-20.7c33.6,3.3,61.1,32.7,62.1,66.5c0.6,21.6-7.5,39.3-22.7,54.3
		C465,378.7,391.6,451.3,318.2,523.8c-2,2-4.2,4-6.5,5.6c-11,7.5-22.9,8.9-35,3.4c-12.2-5.6-19.3-15.3-20.5-29
		c-1.1-12.1,4.1-21.5,12.5-29.8c64.3-63.5,128.6-127.1,192.9-190.6c1.3-1.3,3.3-2,3.9-2.3c-9.2-9.4-17.2-17.6-25.8-26.5
		c-0.9,1.2-1.8,2.8-3.1,4c-49.8,49.3-99.7,98.6-149.5,148c-16.3,16.2-33.1,32-48.8,48.8c-21.9,23.4-23.5,60.3-4.7,86.1
		c26.1,35.8,76.4,39.6,108.5,7.9c74-73,147.9-146.2,221.7-219.4c4.6-4.6,9-9.6,12.8-14.9c40.2-55.7,16.6-133.8-48.9-158.3
		C519.2,153.6,509.8,152.3,500.7,150z"/>
	<path d="M500.7,150c9.1,2.3,18.5,3.6,27.2,6.9c65.4,24.5,89,102.6,48.9,158.3c-3.8,5.3-8.2,10.3-12.8,14.9
		c-73.8,73.2-147.7,146.3-221.7,219.4c-32.1,31.7-82.4,27.9-108.5-7.9c-18.8-25.8-17.2-62.7,4.7-86.1c15.7-16.8,32.4-32.6,48.8-48.8
		c49.8-49.3,99.7-98.6,149.5-148c1.2-1.2,2.1-2.8,3.1-4c8.7,8.9,16.6,17.1,25.8,26.5c-0.6,0.4-2.6,1-3.9,2.3
		C397.4,347,333.1,410.6,268.8,474.1c-8.4,8.3-13.6,17.7-12.5,29.8c1.2,13.6,8.2,23.4,20.5,29c12.1,5.5,24,4.1,35-3.4
		c2.4-1.6,4.5-3.6,6.5-5.6c73.4-72.5,146.7-145.1,220.1-217.6c15.2-15,23.4-32.8,22.7-54.3c-1-33.7-28.5-63.2-62.1-66.5
		c-22.9-2.2-42.6,4.5-58.9,20.7c-74.3,73.4-148.7,146.8-222.8,220.4c-33.6,33.4-41.5,79.5-20.4,121.5c15.9,31.7,42.3,50.7,77.4,56.3
		c36.8,5.9,68.2-5.7,94.6-31.8c80.5-79.7,161-159.3,241.5-238.9c1.6-1.6,2.8-3.4,4.1-5.1c8.7,8.9,16.6,17,24.9,25.5
		c-0.5,0.5-1.6,1.8-2.8,2.9c-82.1,81.2-164.3,162.3-246.2,243.7c-10.6,10.5-22.6,18.6-35.7,24.8C306,648.5,258.2,646.3,213,617
		C176.1,593,155.6,558,151,514c-0.2-1.9-0.6-3.7-1-5.6c0-4.5,0-8.9,0-13.4c0.3-1.1,0.7-2.1,0.8-3.2c1.1-18.6,5.9-36.2,14.5-52.6
		c5-9.5,9.8-19.8,17.2-27.2c77.1-77,154.8-153.5,232.3-230.2c11.6-11.5,24.9-20.5,40.5-25.5c8.3-2.6,16.9-4.2,25.4-6.3
		C487.3,150,494,150,500.7,150z"/>
	<path class="st0" d="M480.6,150c-8.5,2.1-17.1,3.6-25.4,6.3c-15.6,5-28.9,14.1-40.5,25.5C337.2,258.5,259.6,335,182.4,412
		c-7.4,7.4-12.2,17.7-17.2,27.2c-8.6,16.4-13.4,34-14.5,52.6c-0.1,1.1-0.5,2.1-0.8,3.2c0-114.9,0-229.8,0-345
		C260.2,150,370.4,150,480.6,150z"/>
</g>
</svg>
