<?xml version="1.0" encoding="utf-8"?>
<!-- Generator: Adobe Illustrator 27.0.0, SVG Export Plug-In . SVG Version: 6.00 Build 0)  -->
<svg version="1.1" id="Layer_1" xmlns="http://www.w3.org/2000/svg" xmlns:xlink="http://www.w3.org/1999/xlink" x="0px" y="0px"
	 viewBox="0 0 792 792" style="enable-background:new 0 0 792 792;" xml:space="preserve">
<style type="text/css">
	.st0{fill:none;}
	.st1{fill:#FFFFFF;}
</style>
<g>
	<path class="st0" d="M777.9,777.9c-254.5,0-509.2,0-763.9,0c0-254.6,0-509.2,0-763.9c254.5,0,509.1,0,763.9,0
		C777.9,268.6,777.9,523.3,777.9,777.9z M513.6,634.7c2.5,0,5.2,0,7.9,0c42.5,0,85.1,0.2,127.6-0.1c19-0.1,33.5-9.1,42.1-26
		c8.5-16.9,7.2-33.7-3.7-49.4c-13.9-20-27.8-40-42-59.8c-7.5-10.5-10.9-21.9-10.8-34.9c0.2-53.7,0.6-107.4-0.2-161.1
		c-0.3-18.8-2-37.9-6-56.2C596.5,101.7,435.1,20.1,300,82.3c-92.4,42.5-139.9,116.9-142.5,218.6c-1.4,55.2-0.3,110.4-0.2,165.6
		c0,10.2-2,19.9-7.8,28.3c-13.9,20.3-27.6,40.8-42.3,60.5c-12.3,16.5-15.6,33.8-6.7,52.3c9.1,18.9,25.2,27.1,46,27
		c41.5-0.1,83.1,0,124.6,0c2.6,0,5.3,0,7.7,0C292.6,694,341,727.5,390,730.2C439.5,732.9,496.9,702.5,513.6,634.7z"/>
	<path class="st1" d="M513.6,634.7c-16.7,67.8-74.1,98.2-123.6,95.5c-49-2.7-97.4-36.2-111.1-95.5c-2.4,0-5.1,0-7.7,0
		c-41.5,0-83.1-0.1-124.6,0c-20.8,0.1-36.9-8.1-46-27c-8.9-18.5-5.6-35.8,6.7-52.3c14.7-19.7,28.4-40.2,42.3-60.5
		c5.8-8.4,7.8-18.1,7.8-28.3c-0.1-55.2-1.2-110.4,0.2-165.6c2.6-101.7,50.1-176.1,142.5-218.6c135.1-62.2,296.5,19.4,328.5,164.9
		c4,18.3,5.7,37.4,6,56.2c0.8,53.7,0.4,107.4,0.2,161.1c-0.1,13,3.3,24.4,10.8,34.9c14.2,19.8,28.1,39.8,42,59.8
		c10.8,15.7,12.2,32.5,3.7,49.4c-8.6,16.9-23.1,25.9-42.1,26c-42.5,0.3-85.1,0.1-127.6,0.1C518.8,634.7,516.2,634.7,513.6,634.7z
		 M648.1,586.6c-14.4-20.8-28.1-40.9-42.1-60.7c-12.9-18.3-19-38.4-18.9-60.8c0.2-53.5,0.1-106.9,0-160.4c0-8.2-0.4-16.4-1.2-24.6
		C574,163.5,458.6,84.9,345.5,116.3c-83,23.1-139.9,97.2-140.4,183.4c-0.3,55.2-0.2,110.4,0,165.6c0.1,22.4-6.1,42.5-19,60.8
		c-12.6,17.8-25,35.9-37.5,53.9c-1.4,2-2.7,3.9-4.5,6.6C312.4,586.6,479.6,586.6,648.1,586.6z M462.6,635c-44.7,0-88.8,0-132.9,0
		c6.6,25.8,35.5,46.9,64.9,47.4C425.3,682.9,454.7,662.6,462.6,635z"/>
	<path class="st0" d="M648.1,586.6c-168.6,0-335.8,0-504.1,0c1.8-2.7,3.2-4.7,4.5-6.6c12.5-18,24.8-36,37.5-53.9
		c12.9-18.3,19.1-38.4,19-60.8c-0.2-55.2-0.3-110.4,0-165.6c0.5-86.2,57.4-160.4,140.4-183.4C458.6,84.9,574,163.5,585.9,280.2
		c0.8,8.1,1.2,16.4,1.2,24.6c0.1,53.5,0.2,106.9,0,160.4c-0.1,22.4,6,42.5,18.9,60.8C620,545.7,633.7,565.8,648.1,586.6z"/>
	<path class="st1" d="M462.6,635c-7.9,27.6-37.4,47.9-68.1,47.4c-29.3-0.5-58.3-21.6-64.9-47.4C373.9,635,418,635,462.6,635z"/>
</g>
</svg>
