<?xml version="1.0" encoding="utf-8"?>
<!-- Generator: Adobe Illustrator 27.0.0, SVG Export Plug-In . SVG Version: 6.00 Build 0)  -->
<svg version="1.1" id="Layer_1" xmlns="http://www.w3.org/2000/svg" xmlns:xlink="http://www.w3.org/1999/xlink" x="0px" y="0px"
	 viewBox="0 0 792 792" style="enable-background:new 0 0 792 792;" xml:space="preserve">
<style type="text/css">
	.st0{fill:none;}
	.st1{fill:#FFFFFF;}
</style>
<g>
	<path class="st0" d="M54.2,737.8c0-227.8,0-455.6,0-683.5c227.8,0,455.5,0,683.5,0c0,227.8,0,455.6,0,683.5
		C510,737.8,282.1,737.8,54.2,737.8z M396.1,608.5c77.1,0,154.1,0,231.2,0c41,0,68-27,68-68c0-96.8,0-193.6,0-290.4
		c0-41-27-68-68-68c-153.7,0-307.4,0-461,0c-41,0-68,27.1-68,68c0,96.8,0,193.6,0,290.4c0,40.9,27.1,68,68,68
		C242.8,608.5,319.4,608.5,396.1,608.5z"/>
	<path class="st1" d="M396.1,608.5c-76.6,0-153.2,0-229.9,0c-40.9,0-68-27.1-68-68c0-96.8,0-193.6,0-290.4c0-40.9,27.1-68,68-68
		c153.7,0,307.4,0,461,0c40.9,0,68,27,68,68c0,96.8,0,193.6,0,290.4c0,40.9-27.1,68-68,68C550.2,608.5,473.1,608.5,396.1,608.5z
		 M652.6,272c-2.8,1.7-4.5,2.6-6.1,3.7c-70,46.7-139.9,93.3-209.9,140c-27.4,18.3-52.1,18.3-79.3,0.1
		c-69.8-46.5-139.6-93-209.4-139.5c-2-1.4-4.2-2.6-7.1-4.4c0,3.7,0,6,0,8.2c0,86.6,0,173.2,0,259.8c0,18.2,7.8,26,25.8,26
		c153.5,0,306.9,0,460.4,0c17.8,0,25.6-7.8,25.6-25.6c0-86.8,0-173.6,0-260.5C652.6,277.6,652.6,275.4,652.6,272z M153.6,226.7
		c-0.1,0.7-0.1,1.3-0.2,2c2.3,1.6,4.6,3.3,6.9,4.8c73.3,48.8,146.6,97.6,219.9,146.5c13.6,9,19.8,9,33.3,0
		c74-49.3,148.1-98.6,222.1-147.9c1.8-1.2,3.4-2.4,5.2-3.7c-0.1-0.7-0.2-1.3-0.3-2c-4.7-0.6-9.4-1.6-14.1-1.6
		c-153-0.1-306-0.1-458.9,0C162.9,224.8,158.2,226,153.6,226.7z"/>
	<path class="st0" d="M651.9,272c0,3.5,0,5.7,0,7.9c0,86.8,0,173.6,0,260.5c0,17.7-7.8,25.6-25.6,25.6c-153.5,0-306.9,0-460.4,0
		c-18,0-25.8-7.9-25.8-26c0-86.6,0-173.2,0-259.8c0-2.2,0-4.4,0-8.2c2.9,1.8,5,3.1,7.1,4.4c69.8,46.5,139.6,93,209.4,139.5
		c27.2,18.2,51.9,18.1,79.3-0.1c70-46.7,139.9-93.3,209.9-140C647.4,274.6,649.1,273.7,651.9,272z"/>
	<path class="st0" d="M153.6,226.7c4.6-0.7,9.3-1.9,13.9-1.9c153-0.1,306-0.1,458.9,0c4.7,0,9.4,1,14.1,1.6c0.1,0.7,0.2,1.3,0.3,2
		c-1.7,1.2-3.4,2.5-5.2,3.7c-74,49.3-148.1,98.6-222.1,147.9c-13.6,9-19.8,9-33.3,0c-73.3-48.8-146.6-97.6-219.9-146.5
		c-2.3-1.6-4.6-3.2-6.9-4.8C153.4,228,153.5,227.3,153.6,226.7z"/>
</g>
</svg>
