<?xml version="1.0" encoding="utf-8"?>
<!-- Generator: Adobe Illustrator 27.0.0, SVG Export Plug-In . SVG Version: 6.00 Build 0)  -->
<svg version="1.1" id="Layer_1" xmlns="http://www.w3.org/2000/svg" xmlns:xlink="http://www.w3.org/1999/xlink" x="0px" y="0px"
	 viewBox="0 0 792 792" style="enable-background:new 0 0 792 792;" xml:space="preserve">
<style type="text/css">
	.st0{fill:none;}
	.st1{fill:#FFFFFF;}
</style>
<g>
	<path class="st0" d="M726,408.9c0,105.7,0,211.4,0,317.1c-219.9,0-439.9,0-660,0c0-220,0-440,0-660c105.2,0,210.5,0,315.7,0
		c-17.1,5.3-28.8,17.7-41,29.9c-83.9,84.1-168,168.1-252,252.1c-2.1,2.1-4.3,4.2-6.2,6.5c-14.9,17.6-19.4,37.7-12,59.5
		c7.5,22.1,23.2,35.7,46.2,40.2c6.8,1.3,13.9,1.3,21.3,1.9c0,2.9,0,5.4,0,8c0,62.3-0.1,124.6,0,186.9c0.1,43.2,30.7,73.7,73.9,73.8
		c32.7,0,65.3,0,98,0c16.8,0,23.9-7.1,23.9-23.9c0-49.2,0-98.4,0-147.6c0-22.6,13.1-35.7,35.6-35.7c18-0.1,36.1,0.5,54.1-0.1
		c23-0.9,37.7,15.4,37.4,36.9c-0.8,49.4-0.3,98.8-0.2,148.2c0,14.5,7.8,22.2,22.3,22.2c33.5,0,67,0.1,100.6-0.1
		c6,0,12.1-0.5,17.9-1.9c33-7.8,55-35.7,55-70.2c0.2-63.2,0-126.3,0-189.5c0-2.5,0-4.9,0-7.6c4.4,0,7.6,0,10.8,0
		c15.7-0.2,29.3-5.8,40.8-16.4C717.1,430.7,722.2,420.2,726,408.9z"/>
	<path class="st1" d="M726,408.9c-3.8,11.3-8.9,21.8-17.9,30.1c-11.6,10.6-25.1,16.2-40.8,16.4c-3.2,0-6.4,0-10.8,0
		c0,2.7,0,5.2,0,7.6c0,63.2,0.1,126.3,0,189.5c-0.1,34.6-22,62.4-55,70.2c-5.8,1.4-11.9,1.9-17.9,1.9c-33.5,0.2-67,0.1-100.6,0.1
		c-14.6,0-22.3-7.7-22.3-22.2c0-49.4-0.6-98.8,0.2-148.2c0.3-21.5-14.4-37.8-37.4-36.9c-18,0.7-36.1,0.1-54.1,0.1
		c-22.5,0.1-35.5,13.2-35.6,35.7c0,49.2,0,98.4,0,147.6c0,16.8-7.1,23.9-23.9,23.9c-32.7,0-65.3,0-98,0
		c-43.3-0.1-73.9-30.5-73.9-73.8c-0.1-62.3,0-124.6,0-186.9c0-2.6,0-5.1,0-8c-7.4-0.6-14.4-0.6-21.3-1.9
		c-23-4.5-38.7-18.1-46.2-40.2c-7.4-21.9-2.9-41.9,12-59.5c1.9-2.3,4.1-4.4,6.2-6.5c84-84,168.1-168,252-252.1
		c12.1-12.2,23.9-24.6,41-29.9c10.3,0,20.6,0,30.9,0c16.3,5.2,27.9,16.8,39.6,28.5c82.6,82.8,165.3,165.6,248.2,248.1
		c11.1,11.1,21.1,22.5,25.5,37.9C726,390,726,399.5,726,408.9z M499.3,686.1c3.3,0,5.6,0,7.9,0c22.6,0,45.2-1,67.7,0.3
		c27.9,1.6,43.9-12.2,43.3-43.5c-1.2-67.4-0.4-134.9-0.4-202.4c0-16.7,7.2-23.8,24-23.8c8.4,0,16.8,0.1,25.1-0.1
		c9-0.2,15.6-4.6,19.4-12.6c4-8.4,2.7-16.3-3-23.5c-1.7-2.2-3.8-4.1-5.8-6.1c-86.9-86.9-173.8-173.8-260.7-260.7
		c-14.1-14.1-25.1-14.1-39.1-0.1C299.9,191.5,222.1,269.2,144.4,347c-10.8,10.8-21.7,21.5-32.3,32.4c-6.6,6.8-8.2,15.1-4.5,23.8
		c3.7,8.7,10.6,13.3,20.2,13.4c8.2,0.1,16.3,0,24.5,0.1c17.2,0,24.3,7.1,24.3,24.2c0,70.3,0,140.5,0,210.8
		c0,20.8,13.6,34.3,34.2,34.4c26,0.1,52,0,78,0c1.9,0,3.7-0.2,6.2-0.4c0-2.9,0-5.4,0-7.9c0-42.1-0.2-84.2,0.1-126.3
		c0.2-39.9,27.7-69.8,67.5-72.1c22.9-1.3,46-0.3,68.9-0.2c3.8,0,7.7,0.6,11.5,1.5c33.8,7.6,56,35.3,56.2,70.6
		c0.2,42.1,0.1,84.2,0.1,126.3C499.3,680.1,499.3,682.6,499.3,686.1z"/>
	<path class="st0" d="M726,380.6c-4.4-15.4-14.4-26.8-25.5-37.9c-82.9-82.6-165.6-165.3-248.2-248.1C440.6,82.8,429,71.2,412.7,66
		c104.4,0,208.9,0,313.3,0C726,170.9,726,275.7,726,380.6z"/>
	<path class="st0" d="M499.3,686.1c0-3.4,0-6,0-8.5c0-42.1,0.2-84.2-0.1-126.3c-0.2-35.3-22.4-63-56.2-70.6
		c-3.8-0.8-7.6-1.5-11.5-1.5c-23-0.1-46-1.1-68.9,0.2c-39.8,2.3-67.3,32.2-67.5,72.1c-0.2,42.1-0.1,84.2-0.1,126.3
		c0,2.5,0,5.1,0,7.9c-2.5,0.2-4.4,0.4-6.2,0.4c-26,0-52,0.1-78,0c-20.7-0.1-34.2-13.6-34.2-34.4c-0.1-70.3,0-140.5,0-210.8
		c0-17.1-7.1-24.2-24.3-24.2c-8.2,0-16.3,0.1-24.5-0.1c-9.5-0.2-16.5-4.8-20.2-13.4c-3.7-8.7-2.1-17,4.5-23.8
		c10.6-11,21.5-21.6,32.3-32.4c77.8-77.8,155.6-155.6,233.4-233.3c14-14,25-14,39.1,0.1c86.9,86.9,173.8,173.8,260.7,260.7
		c2,2,4,3.9,5.8,6.1c5.7,7.2,7,15.1,3,23.5c-3.8,8.1-10.4,12.4-19.4,12.6c-8.4,0.2-16.8,0-25.1,0.1c-16.8,0-24,7.1-24,23.8
		c0,67.5-0.9,134.9,0.4,202.4c0.6,31.3-15.4,45-43.3,43.5c-22.5-1.3-45.1-0.3-67.7-0.3C504.9,686.1,502.5,686.1,499.3,686.1z"/>
</g>
</svg>
