<?xml version="1.0" encoding="utf-8"?>
<!-- Generator: Adobe Illustrator 27.0.0, SVG Export Plug-In . SVG Version: 6.00 Build 0)  -->
<svg version="1.1" id="Layer_1" xmlns="http://www.w3.org/2000/svg" xmlns:xlink="http://www.w3.org/1999/xlink" x="0px" y="0px"
	 viewBox="0 0 792 792" style="enable-background:new 0 0 792 792;" xml:space="preserve">
<style type="text/css">
	.st0{fill:none;}
</style>
<g>
	<path class="st0" d="M480.6,200c37.2,0,74.4,0,111.6,0c0,130.7,0,261.4,0,392.2c-130.7,0-261.4,0-392.2,0c0-130.7,0-261.4,0-392.2
		c90.7,0,181.4,0,272.1,0c-4.1,2.6-8.9,4.5-12.3,7.9c-57.2,57-114.3,114.1-171.4,171.3c-1.8,1.8-3.5,3.7-4.8,5.9
		c-5.3,9.2-3.5,19.2,5,27.7c56.9,56.9,113.9,113.9,170.8,170.8c1,1,2,1.9,3.1,2.8c7.1,5.9,16.9,7.5,24.1,2
		c7.7-5.9,14.9-12.9,20.7-20.6c6.3-8.4,3.7-18.8-4.7-27.2c-47.1-47.1-94.2-94.2-141.3-141.3c-1.1-1.1-2.1-2.2-3.8-4
		c1.4-1,2.8-1.8,3.9-2.8c46.8-46.7,93.5-93.5,140.3-140.2c1.5-1.5,3.1-3.1,4.4-4.8c5.7-7.1,6.5-18.3,0.6-25.2
		C499.2,213.4,492.1,204,480.6,200z"/>
	<path d="M480.6,200.2c11.6,4,18.6,13.4,26.1,22.1c5.9,6.9,5.1,18.1-0.6,25.2c-1.3,1.7-2.9,3.2-4.4,4.8
		c-46.7,46.8-93.5,93.5-140.3,140.2c-1.1,1.1-2.5,1.8-3.9,2.8c1.8,1.8,2.8,2.9,3.8,4c47.1,47.1,94.2,94.2,141.3,141.3
		c8.4,8.4,10.9,18.8,4.7,27.2c-5.8,7.7-13,14.7-20.7,20.6c-7.2,5.5-16.9,3.9-24.1-2c-1.1-0.9-2.1-1.8-3.1-2.8
		C402.6,526.8,345.6,469.9,288.7,413c-8.5-8.5-10.4-18.5-5-27.7c1.3-2.2,3-4.1,4.8-5.9c57.1-57.1,114.2-114.3,171.4-171.3
		c3.4-3.4,8.1-5.3,12.3-7.9C475,200.2,477.8,200.2,480.6,200.2z"/>
</g>
</svg>
