<?xml version="1.0" encoding="utf-8"?>
<!-- Generator: Adobe Illustrator 27.0.0, SVG Export Plug-In . SVG Version: 6.00 Build 0)  -->
<svg version="1.1" id="Layer_1" xmlns="http://www.w3.org/2000/svg" xmlns:xlink="http://www.w3.org/1999/xlink" x="0px" y="0px"
	 viewBox="0 0 792 792" style="enable-background:new 0 0 792 792;" xml:space="preserve">
<style type="text/css">
	.st0{fill:none;}
	.st1{fill:#FFFFFF;}
</style>
<g>
	<path class="st0" d="M55,737.7C55,510,55,282.6,55,55c227.6,0,455.1,0,682.7,0c0,227.4,0,455,0,682.7
		C510.2,737.7,282.8,737.7,55,737.7z M163.4,688.4c3.5-2.3,5.5-3.6,7.5-5c57-39.6,113.9-79.2,170.8-119c4.6-3.2,9.1-4.6,14.7-4.6
		c88.9,0.1,177.8,0.2,266.8,0.1c53.1-0.1,91.4-37.5,91.6-89.8c0.3-93.2,0.1-186.4,0-279.5c0-16.2-3.4-31.8-11.9-45.8
		c-18.1-29.8-45-44.1-79.8-44.1c-59.2,0-118.4,0-177.6,0c-92.5,0-184.9,0.5-277.4-0.2c-54.7-0.4-93.8,42.6-92.2,92.2
		c0.9,25.9,0.1,51.9,0.2,77.9c0,68.8-0.4,137.6,0.3,206.3c0.4,42.6,37.4,80.1,79.9,82.5c6,0.3,7.2,2.4,7.2,7.9
		c-0.2,37.3-0.1,74.5-0.1,111.8C163.4,681.6,163.4,684.2,163.4,688.4z"/>
	<path class="st1" d="M163.4,688.4c0-4.2,0-6.7,0-9.3c0-37.3-0.1-74.5,0.1-111.8c0-5.6-1.2-7.6-7.2-7.9
		c-42.5-2.3-79.5-39.8-79.9-82.5c-0.7-68.8-0.3-137.5-0.3-206.3c0-26,0.7-51.9-0.2-77.9c-1.7-49.6,37.5-92.6,92.2-92.2
		c92.5,0.7,184.9,0.2,277.4,0.2c59.2,0,118.4,0,177.6,0c34.7,0,61.6,14.2,79.8,44.1c8.5,14,11.9,29.5,11.9,45.8
		c0.1,93.2,0.2,186.4,0,279.5c-0.1,52.3-38.5,89.8-91.6,89.8c-88.9,0.1-177.8,0.1-266.8-0.1c-5.6,0-10.1,1.4-14.7,4.6
		c-56.9,39.8-113.8,79.4-170.8,119C169,684.8,166.9,686.1,163.4,688.4z M201,616.5c3-1.9,5.1-3.2,7-4.5
		c40.8-28.4,81.5-56.7,122.2-85.2c4.4-3.1,8.7-4.5,14.1-4.5c92.9,0.1,185.8,0.1,278.8,0.1c33.1,0,54.2-20.9,54.3-53.9
		c0.1-92.1,0.2-184.1-0.2-276.2c0-8.6-1.8-17.9-5.4-25.6c-9.8-20.6-27.5-28.5-49.9-28.4c-150.8,0.2-301.6,0.1-452.4,0.1
		c-2.4,0-4.9,0-7.3,0.2c-28,1.7-48.4,22-48.4,50c-0.3,94.5-0.2,189-0.1,283.5c0,11.2,3.3,21.4,10.2,30.3
		c10.8,14,25.3,20.3,42.8,20.1c11.2-0.1,22.5,0,34.5,0C201,554,201,584.7,201,616.5z"/>
	<path class="st0" d="M201,616.5c0-31.8,0-62.5,0-94.1c-12,0-23.2-0.1-34.5,0c-17.5,0.2-32-6.1-42.8-20.1
		c-6.9-8.9-10.2-19.1-10.2-30.3c-0.1-94.5-0.2-189,0.1-283.5c0.1-28,20.4-48.3,48.4-50c2.4-0.2,4.9-0.2,7.3-0.2
		c150.8,0,301.6,0.1,452.4-0.1c22.4,0,40.1,7.8,49.9,28.4c3.7,7.7,5.4,17,5.4,25.6c0.4,92.1,0.3,184.1,0.2,276.2
		c0,33-21.2,53.9-54.3,53.9c-92.9,0.1-185.8,0.1-278.8-0.1c-5.4,0-9.7,1.4-14.1,4.5c-40.7,28.5-81.4,56.8-122.2,85.2
		C206.1,613.3,204,614.5,201,616.5z M247.3,233.4c0,12.2,0,24.4,0,36.5c99,0,197.5,0,295.9,0c0-12.4,0-24.3,0-36.5
		C444.6,233.4,346.2,233.4,247.3,233.4z M543.1,350c0-12.6,0-24.6,0-36.5c-99,0-197.5,0-295.9,0c0,12.5,0,24.3,0,36.5
		C346,350,444.3,350,543.1,350z M247.2,429.8c98.9,0,197.4,0,296,0c0-12.4,0-24.5,0-36.5c-98.9,0-197.4,0-296,0
		C247.2,405.7,247.2,417.6,247.2,429.8z"/>
	<path class="st1" d="M247.2,233.4c98.9,0,197.2,0,295.9,0c0,12.2,0,24.1,0,36.5c-98.5,0-197,0-295.9,0
		C247.2,257.8,247.2,245.6,247.2,233.4z"/>
	<path class="st1" d="M543.1,350c-98.8,0-197.2,0-295.9,0c0-12.2,0-24,0-36.5c98.4,0,196.9,0,295.9,0
		C543.1,325.4,543.1,337.4,543.1,350z"/>
	<path class="st1" d="M247.2,429.8c0-12.2,0-24.1,0-36.5c98.6,0,197.1,0,296,0c0,12,0,24.1,0,36.5
		C444.5,429.8,346,429.8,247.2,429.8z"/>
</g>
</svg>
