<?xml version="1.0" encoding="utf-8"?>
<!-- Generator: Adobe Illustrator 27.0.0, SVG Export Plug-In . SVG Version: 6.00 Build 0)  -->
<svg version="1.1" id="Layer_1" xmlns="http://www.w3.org/2000/svg" xmlns:xlink="http://www.w3.org/1999/xlink" x="0px" y="0px"
	 viewBox="0 0 792 792" style="enable-background:new 0 0 792 792;" xml:space="preserve">
<style type="text/css">
	.st0{fill:none;}
</style>
<g>
	<path class="st0" d="M204,588c0-128,0-256,0-384c128,0,255.9,0,384,0c0,128,0,256,0,384C460,588,332,588,204,588z M276,395.8
		c-0.1,12.7,11.1,24,23.8,24.1c12.7,0.1,24.1-11,24.2-23.7c0.2-12.9-11.1-24.3-24-24.3C287.3,372,276.1,383.1,276,395.8z M396.2,372
		c-12.7-0.1-24,11-24.2,23.7c-0.1,12.7,10.9,24.1,23.6,24.3c12.9,0.2,24.3-11,24.4-23.9C420.1,383.3,408.9,372.1,396.2,372z
		 M492,420c12.7,0,24-11.1,24.1-23.8c0.1-12.7-11-24-23.7-24.2c-12.9-0.1-24.3,11.1-24.3,24C468.1,408.7,479.3,419.9,492,420z"/>
	<path d="M276,395.8c0.1-12.7,11.3-23.9,24-23.9c12.9,0,24.1,11.4,24,24.3c-0.1,12.7-11.5,23.8-24.2,23.7
		C287.1,419.9,276,408.6,276,395.8z"/>
	<path d="M396.2,372c12.7,0.1,23.9,11.3,23.8,24.1c0,12.9-11.5,24.1-24.4,23.9c-12.7-0.2-23.8-11.5-23.6-24.3
		C372.2,383,383.5,371.9,396.2,372z"/>
	<path d="M492,420c-12.7,0-23.9-11.3-23.9-24c0-12.9,11.4-24.1,24.3-24c12.7,0.1,23.8,11.4,23.7,24.2C516,408.9,504.7,420,492,420z"
		/>
</g>
</svg>
