<?xml version="1.0" encoding="utf-8"?>
<!-- Generator: Adobe Illustrator 27.0.0, SVG Export Plug-In . SVG Version: 6.00 Build 0)  -->
<svg version="1.1" id="Layer_1" xmlns="http://www.w3.org/2000/svg" xmlns:xlink="http://www.w3.org/1999/xlink" x="0px" y="0px"
	 viewBox="0 0 792 792" style="enable-background:new 0 0 792 792;" xml:space="preserve">
<style type="text/css">
	.st0{fill:none;}
</style>
<g>
	<path class="st0" d="M319.3,200c91,0,181.9,0,272.9,0c0,130.7,0,261.4,0,392.2c-130.7,0-261.4,0-392.2,0c0-130.7,0-261.4,0-392.2
		c36.9,0,73.9,0,110.8,0c-11.2,4-18.2,13.2-25.6,21.6c-7.2,8.2-5.5,20.4,3.3,29.2c47.2,47.2,94.4,94.4,141.6,141.6
		c1,1,2.7,1.5,4,2.2c-2,2.7-3.3,3.6-4.4,4.6c-46.8,46.7-93.5,93.5-140.3,140.2c-1.2,1.2-2.3,2.3-3.4,3.6c-7,8.2-7.3,19.5-0.4,27.6
		c4.1,4.8,8.7,9.3,13.3,13.7c9.8,9.5,22.3,9.5,31.9-0.2c57.5-57.4,115-114.9,172.4-172.5c2.6-2.6,4.9-6,6.1-9.5
		c3.1-9.3-0.1-17-6.9-23.8c-55.5-55.3-110.8-110.7-166.2-166.2C331.3,207.2,326.3,202.2,319.3,200z"/>
	<path d="M319.3,200c7,2.2,12,7.2,17.1,12.3c55.4,55.4,110.7,110.8,166.2,166.2c6.8,6.8,10,14.5,6.9,23.8c-1.2,3.5-3.5,6.9-6.1,9.5
		C446,469.3,388.5,526.8,331,584.2c-9.7,9.6-22.2,9.6-31.9,0.2c-4.6-4.4-9.2-8.8-13.3-13.7c-6.9-8.2-6.6-19.5,0.4-27.6
		c1.1-1.3,2.3-2.4,3.4-3.6c46.7-46.8,93.5-93.5,140.3-140.2c1.1-1.1,2.3-2,4.4-4.6c-1.3-0.7-3-1.2-4-2.2
		C383,345.2,335.8,298,288.6,250.8c-8.8-8.8-10.6-21-3.3-29.2c7.4-8.4,14.3-17.6,25.6-21.6C313.7,200,316.5,200,319.3,200z"/>
</g>
</svg>
