<?xml version="1.0" encoding="utf-8"?>
<!-- Generator: Adobe Illustrator 27.0.0, SVG Export Plug-In . SVG Version: 6.00 Build 0)  -->
<svg version="1.1" id="Layer_1" xmlns="http://www.w3.org/2000/svg" xmlns:xlink="http://www.w3.org/1999/xlink" x="0px" y="0px"
	 viewBox="0 0 792 792" style="enable-background:new 0 0 792 792;" xml:space="preserve">
<style type="text/css">
	.st0{fill:#FFFFFF;}
	.st1{fill:none;}
</style>
<g>
	<path class="st0" d="M588,213c0,2.2,0,4.5,0,6.8c-1,5.7-2.1,11.5-3,17.2c-4.9,32.8-9.8,65.7-14.7,98.6
		c-4.9,32.7-9.7,65.5-14.6,98.2c-4,26.6-7.9,53.1-12,79.6c-0.3,2.2-1.4,4.7-2.8,6.4c-4.1,4.9-9.3,4.9-15,2.9
		c-54.2-18.6-108.4-37.1-162.5-55.6c-0.9-0.3-1.7-0.7-2.9-1.2C414.4,401,467.9,336.5,521.5,272c-1.4,0-2.2,0.5-2.9,1.1
		c-67.8,58-135.6,116-203.4,174c-2.2,1.9-4,2.2-6.7,1.2c-30.8-10.6-61.6-21.2-92.4-31.6c-5.3-1.8-9.7-4.3-12.1-9.5c0-2,0-4,0-6
		c1.6-3.9,4.2-6.8,8.1-8.8c65.4-34.1,130.7-68.2,196.1-102.3c54.9-28.7,109.9-57.4,164.8-86.1c2,0,4,0,6,0
		C583.2,205.8,586.2,208.8,588,213z"/>
	<path class="st1" d="M204,407.2c2.4,5.3,6.8,7.7,12.1,9.5c30.9,10.4,61.7,21,92.4,31.6c2.7,0.9,4.5,0.6,6.7-1.2
		c67.8-58.1,135.6-116,203.4-174c0.7-0.6,1.5-1.1,2.9-1.1c-53.5,64.5-107.1,129-160.9,193.9c1.2,0.5,2,0.9,2.9,1.2
		c54.2,18.5,108.4,37,162.5,55.6c5.7,2,10.9,1.9,15-2.9c1.4-1.7,2.5-4.1,2.8-6.4c4.1-26.5,8-53.1,12-79.6
		c4.9-32.7,9.7-65.5,14.6-98.2c4.9-32.9,9.7-65.7,14.7-98.6c0.9-5.8,2-11.5,3-17.2c0,122.8,0,245.5,0,368.2c-128,0-256,0-384,0
		C204,527.8,204,467.5,204,407.2z M344.4,485.9c-0.1,0.9-0.3,1.5-0.3,2.1c0,24,0,47.9,0.1,71.9c0,1.9,0.5,4,1.4,5.7
		c4.2,8.2,14.8,8.6,20.7,0.7c13.8-18.6,27.5-37.4,41.2-56.1c0.5-0.6,0.8-1.4,1.3-2.3C387.2,500.5,365.9,493.3,344.4,485.9z"/>
	<path class="st1" d="M573,204c-54.9,28.7-109.8,57.4-164.8,86.1c-65.4,34.1-130.7,68.3-196.1,102.3c-3.9,2-6.5,4.9-8.1,8.8
		c0-65.8,0-131.5,0-197.2C327,204,450,204,573,204z"/>
	<path class="st0" d="M588,213c-1.8-4.2-4.8-7.2-9-9c2.9,0,5.9,0,9,0C588,207,588,210,588,213z"/>
	<path class="st0" d="M344.4,485.9c21.5,7.3,42.8,14.6,64.4,22c-0.5,0.9-0.8,1.6-1.3,2.3c-13.7,18.7-27.4,37.4-41.2,56.1
		c-5.9,7.9-16.4,7.5-20.7-0.7c-0.9-1.7-1.4-3.8-1.4-5.7c-0.1-24-0.1-47.9-0.1-71.9C344.1,487.4,344.2,486.8,344.4,485.9z"/>
</g>
</svg>
