<?xml version="1.0" encoding="utf-8"?>
<!-- Generator: Adobe Illustrator 27.0.0, SVG Export Plug-In . SVG Version: 6.00 Build 0)  -->
<svg version="1.1" id="Layer_1" xmlns="http://www.w3.org/2000/svg" xmlns:xlink="http://www.w3.org/1999/xlink" x="0px" y="0px"
	 viewBox="0 0 792 792" style="enable-background:new 0 0 792 792;" xml:space="preserve">
<style type="text/css">
	.st0{fill:none;}
	.st1{fill:none;stroke:#000000;stroke-width:10;stroke-miterlimit:10;}
</style>
<g>
	<path class="st0" d="M376,590c-58,0-116,0-174,0c0-129.3,0-258.7,0-388c129.3,0,258.7,0,388,0c0,129.3,0,258.7,0,388
		c-57.7,0-115.5,0-173.2,0c0-22.4,0-44.8,0-67.3c34.2-5.7,63.1-20.9,86.2-46.2c23.2-25.4,35.6-55.3,35.9-90.1c-11.7,0-23,0-34.5,0
		c-0.6,28.3-10.3,52.7-30.5,72.4c-20.1,19.6-44.4,29.7-72.3,31c-26.3,1.3-50.4-5.8-71.6-21.5c-27.4-20.3-40.9-48-41.8-81.9
		c-11.8,0-23,0-34.4,0c0,26,7.1,49.6,21.1,70.9c23.9,36.5,58.1,57.7,101,65.4C376,545.4,376,567.7,376,590z M457.6,325.1
		c0-20.2,0.2-40.3-0.1-60.5c-0.4-24.5-10.5-43.9-32.8-55c-22.9-11.4-45.6-9.4-66.2,6c-16.5,12.3-23.3,29.8-23.3,50.1
		c0,39.6,0,79.1,0,118.7c0,1.9,0.1,3.8,0.2,5.7c3.5,50.2,56.3,70.7,93.3,48.3c19.8-12,28.6-30.5,28.9-53.2
		C457.7,365.1,457.6,345.1,457.6,325.1z"/>
	<path class="st1" d="M376,590c0-22.3,0-44.6,0-67.2c-42.9-7.7-77-29-101-65.4c-14-21.3-21.1-44.9-21.1-70.9c11.4,0,22.6,0,34.4,0
		c0.9,33.8,14.4,61.5,41.8,81.9c21.2,15.7,45.3,22.8,71.6,21.5c27.9-1.4,52.2-11.5,72.3-31c20.2-19.7,29.9-44.1,30.5-72.4
		c11.6,0,22.8,0,34.5,0c-0.3,34.8-12.7,64.7-35.9,90.1c-23.1,25.3-52,40.5-86.2,46.2c0,22.5,0,44.9,0,67.3
		C403.2,590,389.6,590,376,590z"/>
	<path class="st1" d="M457.6,325.1c0,20,0.1,40.1,0,60.1c-0.2,22.8-9,41.3-28.9,53.2c-37.1,22.4-89.8,1.8-93.3-48.3
		c-0.1-1.9-0.2-3.8-0.2-5.7c0-39.6,0-79.1,0-118.7c0-20.3,6.8-37.8,23.3-50.1c20.6-15.4,43.3-17.3,66.2-6
		c22.3,11.1,32.4,30.5,32.8,55C457.8,284.7,457.6,304.9,457.6,325.1z"/>
</g>
</svg>
