<?xml version="1.0" encoding="utf-8"?>
<!-- Generator: Adobe Illustrator 27.0.0, SVG Export Plug-In . SVG Version: 6.00 Build 0)  -->
<svg version="1.1" id="Layer_1" xmlns="http://www.w3.org/2000/svg" xmlns:xlink="http://www.w3.org/1999/xlink" x="0px" y="0px"
	 viewBox="0 0 792 792" style="enable-background:new 0 0 792 792;" xml:space="preserve">
<style type="text/css">
	.st0{fill:none;}
	.st1{fill:#27C14B;}
</style>
<g>
	<path class="st0" d="M866.7,850c-309.6,0-619.3,0-929,0c0-309.6,0-619.2,0-929c309.5,0,619.1,0,929,0
		C866.7,230.6,866.7,540.3,866.7,850z M31.8,755.1c5.1-1.2,8.6-1.9,12-2.8c51.6-13.6,103.3-26.9,154.7-41.1
		c12.6-3.5,23-2.1,34.5,3.7c75.8,38.7,155.8,50.3,239.3,34.3c210.3-40.3,342.2-248.9,288.7-456.1c-49.5-191.9-236-310.2-430.7-271.3
		C210.1,45.9,122.5,115.1,68,225c-32.6,65.9-42.4,136.3-33.4,209c5.3,42.6,19.2,82.8,40.1,120.4c5,9.1,6.3,17.9,3.4,27.8
		c-3.7,12.4-6.8,25-10.1,37.5C56.1,664.2,44.2,708.7,31.8,755.1z"/>
	<path class="st1" d="M31.8,755.1c12.4-46.4,24.3-90.9,36.2-135.5c3.3-12.5,6.5-25.1,10.1-37.5c2.9-9.9,1.6-18.7-3.4-27.8
		C53.9,516.7,40,476.6,34.7,433.9c-9-72.7,0.7-143.1,33.4-209c54.4-109.9,142-179,262.4-203.1c194.7-38.9,381.2,79.4,430.7,271.3
		c53.4,207.2-78.5,415.8-288.7,456.1c-83.5,16-163.5,4.4-239.3-34.3c-11.5-5.9-21.9-7.2-34.5-3.7c-51.4,14.2-103.1,27.5-154.7,41.1
		C40.4,753.2,37,753.9,31.8,755.1z M378.5,556.3c18.6-2,37.3-3,55.7-6.3c70.6-12.9,129-48.1,177.5-100.1
		c13.3-14.3,25.6-29.8,36.7-45.9c9.6-13.9,5.6-29.8-7.4-39.2c-13-9.4-28.7-7.3-39.6,5.5c-4.3,5-8,10.6-12.1,15.9
		c-69.8,91.7-176.2,128.7-282.5,98.5c-32.5-9.2-62.4-24-91.1-41.5c-15.4-9.4-33.1-4.7-41.8,9.8c-8.7,14.5-4.7,31,10.6,40.9
		C243.3,532,307.2,554.9,378.5,556.3z M280.3,347.9c25.4-0.1,47.7-22.4,47.6-47.5c-0.2-25.5-23.2-48.1-48.5-47.8
		c-25.3,0.3-46.7,22.5-46.5,48.2C233,326.6,254.5,348,280.3,347.9z M515.7,266c0.1-27-19.9-47.2-46.7-47.3
		c-25.9-0.1-46.8,20.6-47.1,46.5c-0.2,26.2,20.6,47.7,46.7,47.9C495,313.4,515.6,292.8,515.7,266z"/>
	<path class="st0" d="M378.5,556.3c-71.2-1.4-135.2-24.3-194.1-62.6c-15.3-9.9-19.3-26.4-10.6-40.9c8.7-14.4,26.4-19.1,41.8-9.8
		c28.8,17.5,58.6,32.3,91.1,41.5c106.3,30.2,212.7-6.8,282.5-98.5c4-5.3,7.8-10.8,12.1-15.9c11-12.8,26.6-14.8,39.6-5.5
		c13,9.4,17,25.2,7.4,39.2c-11.1,16.1-23.4,31.6-36.7,45.9c-48.5,52-106.9,87.2-177.5,100.1C415.8,553.3,397,554.3,378.5,556.3z"/>
	<path class="st0" d="M280.3,347.9c-25.8,0.1-47.3-21.2-47.5-47c-0.1-25.7,21.2-47.9,46.5-48.2c25.3-0.3,48.3,22.3,48.5,47.8
		C328.1,325.4,305.7,347.7,280.3,347.9z"/>
	<path class="st0" d="M515.7,266c-0.1,26.8-20.7,47.4-47.1,47.1c-26.1-0.3-47-21.7-46.7-47.9c0.2-25.9,21.2-46.6,47.1-46.5
		C495.8,218.8,515.8,239.1,515.7,266z"/>
</g>
</svg>
